<svg xmlns="http://www.w3.org/2000/svg" viewBox="0 0 512 512">
  <!-- Circle Background (Red Brand Color) -->
  <circle cx="256" cy="256" r="256" fill="#E50914"/>
  
  <!-- Receipt Icon centered and scaled to fit (White) -->
  <!-- Using the jagged receipt path from earlier -->
  <g transform="translate(256 256) scale(0.50) translate(-256 -256)">
    <path fill="#ffffff" d="M48 64C21.5 64 0 85.5 0 112V400c0 26.5 21.5 48 48 48H80c26.5 0 48-21.5 48-48c0-26.5 21.5-48 48-48s48 21.5 48 48c0 26.5 21.5 48 48 48h32c26.5 0 48-21.5 48-48c0-26.5 21.5-48 48-48s48 21.5 48 48c0 26.5 21.5 48 48 48h32c26.5 0 48-21.5 48-48V112c0-26.5-21.5-48-48-48H48zM64 128c0-8.8 7.2-16 16-16h32c8.8 0 16 7.2 16 16v32c0 8.8-7.2 16-16 16H80c-8.8 0-16-7.2-16-16V128zm0 128c0-8.8 7.2-16 16-16h32c8.8 0 16 7.2 16 16v32c0 8.8-7.2 16-16 16H80c-8.8 0-16-7.2-16-16V256zm0 128c0-8.8 7.2-16 16-16h32c8.8 0 16 7.2 16 16v32c0 8.8-7.2 16-16 16H80c-8.8 0-16-7.2-16-16V384zM192 112c0-8.8 7.2-16 16-16h32c8.8 0 16 7.2 16 16v32c0 8.8-7.2 16-16 16H208c-8.8 0-16-7.2-16-16V112zm0 128c0-8.8 7.2-16 16-16h32c8.8 0 16 7.2 16 16v32c0 8.8-7.2 16-16 16H208c-8.8 0-16-7.2-16-16V240zm0 128c0-8.8 7.2-16 16-16h32c8.8 0 16 7.2 16 16v32c0 8.8-7.2 16-16 16H208c-8.8 0-16-7.2-16-16V368zM320 112c0-8.8 7.2-16 16-16h32c8.8 0 16 7.2 16 16v32c0 8.8-7.2 16-16 16H336c-8.8 0-16-7.2-16-16V112zm0 128c0-8.8 7.2-16 16-16h32c8.8 0 16 7.2 16 16v32c0 8.8-7.2 16-16 16H336c-8.8 0-16-7.2-16-16V240zM368 352h-32c-8.8 0-16 7.2-16 16v32c0 8.8 7.2 16 16 16h32c8.8 0 16-7.2 16-16v-32c0-8.8-7.2-16-16-16z"/>
  </g>
</svg>
